<svg width="25" height="25" viewBox="0 0 25 25" fill="none" xmlns="http://www.w3.org/2000/svg">
<path d="M12.5 7.49998C15.26 7.49998 17.5 9.73998 17.5 12.5C17.5 13.15 17.37 13.76 17.14 14.33L20.06 17.25C21.57 15.99 22.76 14.36 23.49 12.5C21.76 8.10998 17.49 4.99998 12.49 4.99998C11.09 4.99998 9.75 5.24998 8.51 5.69998L10.67 7.85998C11.24 7.62998 11.85 7.49998 12.5 7.49998ZM2.5 4.76998L4.78 7.04998L5.24 7.50998C3.58 8.79998 2.28 10.52 1.5 12.5C3.23 16.89 7.5 20 12.5 20C14.05 20 15.53 19.7 16.88 19.16L17.3 19.58L20.23 22.5L21.5 21.23L3.77 3.49998L2.5 4.76998ZM8.03 10.3L9.58 11.85C9.53 12.06 9.5 12.28 9.5 12.5C9.5 14.16 10.84 15.5 12.5 15.5C12.72 15.5 12.94 15.47 13.15 15.42L14.7 16.97C14.03 17.3 13.29 17.5 12.5 17.5C9.74 17.5 7.5 15.26 7.5 12.5C7.5 11.71 7.7 10.97 8.03 10.3ZM12.34 9.51999L15.49 12.67L15.51 12.51C15.51 10.85 14.17 9.50998 12.51 9.50998L12.34 9.51999Z" fill="black" fill-opacity="0.54"/>
</svg>
